<svg width="178" height="88" viewBox="0 0 178 88" fill="none" xmlns="http://www.w3.org/2000/svg">
<g clip-path="url(#clip0_6118_318)">
<path d="M115.928 71.664C116.163 71.984 116.28 72.3147 116.28 72.656C116.28 73.1253 116.056 73.52 115.608 73.84C115.181 74.16 114.659 74.32 114.04 74.32C113.123 74.32 112.429 74 111.96 73.36C111.491 72.72 111.256 71.7173 111.256 70.352V69.424C110.552 70.9387 109.592 72.144 108.376 73.04C107.181 73.9147 105.869 74.352 104.44 74.352C103.203 74.352 102.221 74.0213 101.496 73.36C100.792 72.6773 100.44 71.7707 100.44 70.64C100.44 69.3813 100.92 68.3147 101.88 67.44C102.84 66.5653 104.131 65.904 105.752 65.456C107.181 65.072 108.664 64.88 110.2 64.88C110.627 64.88 110.936 64.8907 111.128 64.912V64.08C111.128 62.1813 110.808 60.7733 110.168 59.856C109.549 58.9387 108.515 58.48 107.064 58.48C106.125 58.48 105.336 58.6827 104.696 59.088C104.056 59.4933 103.736 60.1547 103.736 61.072C103.736 61.5627 103.843 62.0213 104.056 62.448C104.291 62.8747 104.643 63.1733 105.112 63.344C104.771 63.7707 104.259 63.984 103.576 63.984C102.872 63.984 102.296 63.7067 101.848 63.152C101.4 62.576 101.176 61.9147 101.176 61.168C101.176 59.9307 101.72 58.9813 102.808 58.32C103.896 57.6587 105.389 57.328 107.288 57.328C109.485 57.328 111.107 57.8933 112.152 59.024C113.197 60.1547 113.72 61.8933 113.72 64.24V70.64C113.72 71.7707 114.104 72.336 114.872 72.336C115.043 72.336 115.235 72.2827 115.448 72.176C115.661 72.048 115.821 71.8773 115.928 71.664ZM105.464 72.56C106.317 72.56 107.181 72.2507 108.056 71.632C108.952 70.992 109.688 70.16 110.264 69.136C110.861 68.112 111.171 67.0453 111.192 65.936L110.456 65.904C109.709 65.904 108.952 65.968 108.184 66.096C107.416 66.2027 106.765 66.3627 106.232 66.576C105.293 66.9173 104.557 67.3867 104.024 67.984C103.491 68.5813 103.224 69.2853 103.224 70.096C103.224 70.8 103.405 71.3867 103.768 71.856C104.131 72.3253 104.696 72.56 105.464 72.56ZM126.066 57.328C127.175 57.328 128.06 57.6267 128.722 58.224C129.404 58.8 129.746 59.6107 129.746 60.656C129.746 61.36 129.543 61.9467 129.138 62.416C128.732 62.864 128.252 63.088 127.698 63.088C127.228 63.088 126.908 62.9813 126.738 62.768C126.972 62.4053 127.132 62.0747 127.218 61.776C127.303 61.456 127.346 61.104 127.346 60.72C127.346 59.3973 126.727 58.736 125.49 58.736C124.53 58.736 123.719 59.3547 123.058 60.592C122.418 61.808 122.098 63.7067 122.098 66.288V68.016C122.098 69.936 122.119 71.2373 122.162 71.92C122.204 72.6027 122.322 73.2 122.514 73.712C122.066 74.096 121.564 74.288 121.01 74.288C120.583 74.288 120.231 74.16 119.954 73.904C119.676 73.6267 119.538 73.2533 119.538 72.784V61.008C119.538 60.4107 119.463 59.984 119.314 59.728C119.186 59.472 118.962 59.344 118.642 59.344C118.236 59.344 117.959 59.5147 117.81 59.856C117.554 59.4933 117.426 59.152 117.426 58.832C117.426 58.384 117.596 58.032 117.938 57.776C118.279 57.4987 118.748 57.36 119.346 57.36C120.178 57.36 120.796 57.6587 121.202 58.256C121.628 58.832 121.831 59.696 121.81 60.848V61.008C122.172 59.792 122.716 58.8747 123.442 58.256C124.167 57.6373 125.042 57.328 126.066 57.328ZM139.455 74.416C137.151 74.416 135.348 73.6693 134.047 72.176C132.767 70.6613 132.127 68.56 132.127 65.872C132.127 63.184 132.767 61.0933 134.047 59.6C135.348 58.0853 137.151 57.328 139.455 57.328C141.78 57.328 143.583 58.0853 144.863 59.6C146.164 61.0933 146.815 63.184 146.815 65.872C146.815 68.56 146.164 70.6613 144.863 72.176C143.583 73.6693 141.78 74.416 139.455 74.416ZM139.455 73.264C140.948 73.264 142.089 72.6347 142.879 71.376C143.668 70.096 144.063 68.2613 144.063 65.872C144.063 63.4827 143.668 61.6587 142.879 60.4C142.089 59.1413 140.948 58.512 139.455 58.512C137.961 58.512 136.82 59.1413 136.031 60.4C135.241 61.6587 134.847 63.4827 134.847 65.872C134.847 68.2613 135.241 70.096 136.031 71.376C136.82 72.6347 137.961 73.264 139.455 73.264ZM153.819 74.32C152.859 74.32 152.112 74.0107 151.579 73.392C151.045 72.7733 150.779 71.8987 150.779 70.768V52.048C150.779 51.6 150.917 51.2587 151.195 51.024C151.472 50.768 151.835 50.64 152.283 50.64C152.816 50.64 153.307 50.832 153.755 51.216C153.584 51.7707 153.467 52.4853 153.403 53.36C153.36 54.2347 153.339 55.6 153.339 57.456V70.64C153.339 71.1947 153.435 71.6213 153.627 71.92C153.84 72.1973 154.149 72.336 154.555 72.336C154.789 72.336 155.013 72.2827 155.227 72.176C155.461 72.048 155.632 71.8773 155.739 71.664C155.973 71.984 156.091 72.3147 156.091 72.656C156.091 73.1467 155.867 73.552 155.419 73.872C154.992 74.1707 154.459 74.32 153.819 74.32Z" fill="#949494"/>
<mask id="mask0_6118_318" style="mask-type:alpha" maskUnits="userSpaceOnUse" x="9" y="33" width="146" height="91">
<rect x="9.92601" y="68.1758" width="134" height="57" transform="rotate(-14.8918 9.92601 68.1758)" fill="#D9D9D9"/>
</mask>
<g mask="url(#mask0_6118_318)">
<path d="M68.4 80.95C57.4 80.95 48.85 77.55 42.75 70.75C36.65 63.95 33.6 54.15 33.6 41.35C33.6 28.75 36.7 18.85 42.9 11.65C49.2 4.45 58.05 0.849996 69.45 0.849996C77.55 0.849996 83.8 2.6 88.2 6.1C92.7 9.59999 94.95 14.2 94.95 19.9C94.95 23.4 94 26.2 92.1 28.3C90.3 30.4 87.95 31.45 85.05 31.45C81.75 31.45 79.4 30.5 78 28.6C81.3 27.3 82.95 24.1 82.95 19C82.95 14.7 81.55 11.5 78.75 9.4C76.05 7.2 72.6 6.1 68.4 6.1C61.7 6.1 56.35 9 52.35 14.8C48.35 20.6 46.35 28.85 46.35 39.55C46.35 51.05 48.65 59.45 53.25 64.75C57.85 70.05 63.95 72.7 71.55 72.7C77.05 72.7 81.8 71.35 85.8 68.65C89.8 65.95 92.4 62.05 93.6 56.95C95.1 57.45 95.85 58.7 95.85 60.7C95.85 62 95.6 63.35 95.1 64.75C93.5 69.95 90.3 73.95 85.5 76.75C80.8 79.55 75.1 80.95 68.4 80.95Z" fill="#949494"/>
</g>
<mask id="mask1_6118_318" style="mask-type:alpha" maskUnits="userSpaceOnUse" x="11" y="-16" width="117" height="71">
<rect x="11.4112" y="15.4758" width="109" height="41" transform="rotate(-16.6507 11.4112 15.4758)" fill="#D9D9D9"/>
</mask>
<g mask="url(#mask1_6118_318)">
<path d="M68.4 80.95C57.4 80.95 48.85 77.55 42.75 70.75C36.65 63.95 33.6 54.15 33.6 41.35C33.6 28.75 36.7 18.85 42.9 11.65C49.2 4.45 58.05 0.849996 69.45 0.849996C77.55 0.849996 83.8 2.6 88.2 6.1C92.7 9.59999 94.95 14.2 94.95 19.9C94.95 23.4 94 26.2 92.1 28.3C90.3 30.4 87.95 31.45 85.05 31.45C81.75 31.45 79.4 30.5 78 28.6C81.3 27.3 82.95 24.1 82.95 19C82.95 14.7 81.55 11.5 78.75 9.4C76.05 7.2 72.6 6.1 68.4 6.1C61.7 6.1 56.35 9 52.35 14.8C48.35 20.6 46.35 28.85 46.35 39.55C46.35 51.05 48.65 59.45 53.25 64.75C57.85 70.05 63.95 72.7 71.55 72.7C77.05 72.7 81.8 71.35 85.8 68.65C89.8 65.95 92.4 62.05 93.6 56.95C95.1 57.45 95.85 58.7 95.85 60.7C95.85 62 95.6 63.35 95.1 64.75C93.5 69.95 90.3 73.95 85.5 76.75C80.8 79.55 75.1 80.95 68.4 80.95Z" fill="#949494"/>
</g>
</g>
<defs>
<clipPath id="clip0_6118_318">
<rect width="178" height="88" fill="white"/>
</clipPath>
</defs>
</svg>
