<svg width="163" height="146" viewBox="0 0 163 146" fill="none" xmlns="http://www.w3.org/2000/svg">
<path d="M72.928 92.664C73.1627 92.984 73.28 93.3147 73.28 93.656C73.28 94.1253 73.056 94.52 72.608 94.84C72.1813 95.16 71.6587 95.32 71.04 95.32C70.1227 95.32 69.4293 95 68.96 94.36C68.4907 93.72 68.256 92.7173 68.256 91.352V90.424C67.552 91.9387 66.592 93.144 65.376 94.04C64.1813 94.9147 62.8693 95.352 61.44 95.352C60.2027 95.352 59.2213 95.0213 58.496 94.36C57.792 93.6773 57.44 92.7707 57.44 91.64C57.44 90.3813 57.92 89.3147 58.88 88.44C59.84 87.5653 61.1307 86.904 62.752 86.456C64.1813 86.072 65.664 85.88 67.2 85.88C67.6267 85.88 67.936 85.8907 68.128 85.912V85.08C68.128 83.1813 67.808 81.7733 67.168 80.856C66.5493 79.9387 65.5147 79.48 64.064 79.48C63.1253 79.48 62.336 79.6827 61.696 80.088C61.056 80.4933 60.736 81.1547 60.736 82.072C60.736 82.5627 60.8427 83.0213 61.056 83.448C61.2907 83.8747 61.6427 84.1733 62.112 84.344C61.7707 84.7707 61.2587 84.984 60.576 84.984C59.872 84.984 59.296 84.7067 58.848 84.152C58.4 83.576 58.176 82.9147 58.176 82.168C58.176 80.9307 58.72 79.9813 59.808 79.32C60.896 78.6587 62.3893 78.328 64.288 78.328C66.4853 78.328 68.1067 78.8933 69.152 80.024C70.1973 81.1547 70.72 82.8933 70.72 85.24V91.64C70.72 92.7707 71.104 93.336 71.872 93.336C72.0427 93.336 72.2347 93.2827 72.448 93.176C72.6613 93.048 72.8213 92.8773 72.928 92.664ZM62.464 93.56C63.3173 93.56 64.1813 93.2507 65.056 92.632C65.952 91.992 66.688 91.16 67.264 90.136C67.8613 89.112 68.1707 88.0453 68.192 86.936L67.456 86.904C66.7093 86.904 65.952 86.968 65.184 87.096C64.416 87.2027 63.7653 87.3627 63.232 87.576C62.2933 87.9173 61.5573 88.3867 61.024 88.984C60.4907 89.5813 60.224 90.2853 60.224 91.096C60.224 91.8 60.4053 92.3867 60.768 92.856C61.1307 93.3253 61.696 93.56 62.464 93.56ZM83.0658 78.328C84.1751 78.328 85.0604 78.6267 85.7218 79.224C86.4044 79.8 86.7458 80.6107 86.7458 81.656C86.7458 82.36 86.5431 82.9467 86.1378 83.416C85.7324 83.864 85.2524 84.088 84.6978 84.088C84.2284 84.088 83.9084 83.9813 83.7378 83.768C83.9724 83.4053 84.1324 83.0747 84.2178 82.776C84.3031 82.456 84.3458 82.104 84.3458 81.72C84.3458 80.3973 83.7271 79.736 82.4898 79.736C81.5298 79.736 80.7191 80.3547 80.0578 81.592C79.4178 82.808 79.0978 84.7067 79.0978 87.288V89.016C79.0978 90.936 79.1191 92.2373 79.1618 92.92C79.2044 93.6027 79.3218 94.2 79.5138 94.712C79.0658 95.096 78.5644 95.288 78.0098 95.288C77.5831 95.288 77.2311 95.16 76.9538 94.904C76.6764 94.6267 76.5378 94.2533 76.5378 93.784V82.008C76.5378 81.4107 76.4631 80.984 76.3138 80.728C76.1858 80.472 75.9618 80.344 75.6418 80.344C75.2364 80.344 74.9591 80.5147 74.8098 80.856C74.5538 80.4933 74.4258 80.152 74.4258 79.832C74.4258 79.384 74.5964 79.032 74.9378 78.776C75.2791 78.4987 75.7484 78.36 76.3458 78.36C77.1778 78.36 77.7964 78.6587 78.2018 79.256C78.6284 79.832 78.8311 80.696 78.8098 81.848V82.008C79.1724 80.792 79.7164 79.8747 80.4418 79.256C81.1671 78.6373 82.0418 78.328 83.0658 78.328ZM96.4548 95.416C94.1508 95.416 92.3481 94.6693 91.0468 93.176C89.7668 91.6613 89.1268 89.56 89.1268 86.872C89.1268 84.184 89.7668 82.0933 91.0468 80.6C92.3481 79.0853 94.1508 78.328 96.4548 78.328C98.7801 78.328 100.583 79.0853 101.863 80.6C103.164 82.0933 103.815 84.184 103.815 86.872C103.815 89.56 103.164 91.6613 101.863 93.176C100.583 94.6693 98.7801 95.416 96.4548 95.416ZM96.4548 94.264C97.9481 94.264 99.0894 93.6347 99.8788 92.376C100.668 91.096 101.063 89.2613 101.063 86.872C101.063 84.4827 100.668 82.6587 99.8788 81.4C99.0894 80.1413 97.9481 79.512 96.4548 79.512C94.9614 79.512 93.8201 80.1413 93.0308 81.4C92.2414 82.6587 91.8468 84.4827 91.8468 86.872C91.8468 89.2613 92.2414 91.096 93.0308 92.376C93.8201 93.6347 94.9614 94.264 96.4548 94.264ZM110.819 95.32C109.859 95.32 109.112 95.0107 108.579 94.392C108.045 93.7733 107.779 92.8987 107.779 91.768V73.048C107.779 72.6 107.917 72.2587 108.195 72.024C108.472 71.768 108.835 71.64 109.283 71.64C109.816 71.64 110.307 71.832 110.755 72.216C110.584 72.7707 110.467 73.4853 110.403 74.36C110.36 75.2347 110.339 76.6 110.339 78.456V91.64C110.339 92.1947 110.435 92.6213 110.627 92.92C110.84 93.1973 111.149 93.336 111.555 93.336C111.789 93.336 112.013 93.2827 112.227 93.176C112.461 93.048 112.632 92.8773 112.739 92.664C112.973 92.984 113.091 93.3147 113.091 93.656C113.091 94.1467 112.867 94.552 112.419 94.872C111.992 95.1707 111.459 95.32 110.819 95.32Z" fill="#949494"/>
<mask id="mask0_6118_306" style="mask-type:alpha" maskUnits="userSpaceOnUse" x="21" y="96" width="134" height="50">
<rect x="21" y="96" width="134" height="50" fill="#D9D9D9"/>
</mask>
<g mask="url(#mask0_6118_306)">
<path d="M82.2 135.6C67.5333 135.6 56.1333 131.067 48 122C39.8667 112.933 35.8 99.8667 35.8 82.8C35.8 66 39.9333 52.8 48.2 43.2C56.6 33.6 68.4 28.8 83.6 28.8C94.4 28.8 102.733 31.1333 108.6 35.8C114.6 40.4667 117.6 46.6 117.6 54.2C117.6 58.8667 116.333 62.6 113.8 65.4C111.4 68.2 108.267 69.6 104.4 69.6C100 69.6 96.8667 68.3333 95 65.8C99.4 64.0667 101.6 59.8 101.6 53C101.6 47.2667 99.7333 43 96 40.2C92.4 37.2667 87.8 35.8 82.2 35.8C73.2667 35.8 66.1333 39.6667 60.8 47.4C55.4667 55.1333 52.8 66.1333 52.8 80.4C52.8 95.7333 55.8667 106.933 62 114C68.1333 121.067 76.2667 124.6 86.4 124.6C93.7333 124.6 100.067 122.8 105.4 119.2C110.733 115.6 114.2 110.4 115.8 103.6C117.8 104.267 118.8 105.933 118.8 108.6C118.8 110.333 118.467 112.133 117.8 114C115.667 120.933 111.4 126.267 105 130C98.7333 133.733 91.1333 135.6 82.2 135.6Z" fill="#949494"/>
</g>
<mask id="mask1_6118_306" style="mask-type:alpha" maskUnits="userSpaceOnUse" x="15" y="8" width="134" height="67">
<rect x="15" y="8" width="134" height="67" fill="#D9D9D9"/>
</mask>
<g mask="url(#mask1_6118_306)">
<path d="M82.2 135.6C67.5333 135.6 56.1333 131.067 48 122C39.8667 112.933 35.8 99.8667 35.8 82.8C35.8 66 39.9333 52.8 48.2 43.2C56.6 33.6 68.4 28.8 83.6 28.8C94.4 28.8 102.733 31.1333 108.6 35.8C114.6 40.4667 117.6 46.6 117.6 54.2C117.6 58.8667 116.333 62.6 113.8 65.4C111.4 68.2 108.267 69.6 104.4 69.6C100 69.6 96.8667 68.3333 95 65.8C99.4 64.0667 101.6 59.8 101.6 53C101.6 47.2667 99.7333 43 96 40.2C92.4 37.2667 87.8 35.8 82.2 35.8C73.2667 35.8 66.1333 39.6667 60.8 47.4C55.4667 55.1333 52.8 66.1333 52.8 80.4C52.8 95.7333 55.8667 106.933 62 114C68.1333 121.067 76.2667 124.6 86.4 124.6C93.7333 124.6 100.067 122.8 105.4 119.2C110.733 115.6 114.2 110.4 115.8 103.6C117.8 104.267 118.8 105.933 118.8 108.6C118.8 110.333 118.467 112.133 117.8 114C115.667 120.933 111.4 126.267 105 130C98.7333 133.733 91.1333 135.6 82.2 135.6Z" fill="#949494"/>
</g>
</svg>
